{
    "asset" : {
        "generator" : "Khronos glTF Blender I/O v3.4.50",
        "version" : "2.0"
    },
    "scene" : 0,
    "scenes" : [
        {
            "name" : "Scene",
            "nodes" : [
                7
            ]
        }
    ],
    "nodes" : [
        {
            "mesh" : 0,
            "name" : "Trainingdummy_ArmLeft",
            "rotation" : [
                0,
                0,
                -0.2164396345615387,
                0.9762960076332092
            ],
            "translation" : [
                0.2599945068359375,
                0.666748046875,
                0
            ]
        },
        {
            "mesh" : 1,
            "name" : "Trainingdummy_ArmRight",
            "rotation" : [
                0,
                0,
                0.2164396345615387,
                0.9762960076332092
            ],
            "translation" : [
                -0.26000213623046875,
                0.666748046875,
                0
            ]
        },
        {
            "mesh" : 2,
            "name" : "Trainingdummy_Head",
            "translation" : [
                0,
                0.9156303405761719,
                0
            ]
        },
        {
            "mesh" : 3,
            "name" : "Trainingdummy_TargetBack",
            "translation" : [
                0,
                0.5197134017944336,
                -0.3278086483478546
            ]
        },
        {
            "mesh" : 4,
            "name" : "Trainingdummy_TargetFront",
            "translation" : [
                0,
                0.5197134017944336,
                0.3278086483478546
            ]
        },
        {
            "children" : [
                0,
                1,
                2,
                3,
                4
            ],
            "mesh" : 5,
            "name" : "Trainingdummy_Chest",
            "translation" : [
                0,
                0.5552520751953125,
                0
            ]
        },
        {
            "children" : [
                5
            ],
            "mesh" : 6,
            "name" : "Trainingdummy_Post",
            "translation" : [
                0,
                0.13000011444091797,
                0
            ]
        },
        {
            "children" : [
                6
            ],
            "mesh" : 7,
            "name" : "Trainingdummy_Base"
        }
    ],
    "materials" : [
        {
            "name" : "avian_swordsman",
            "pbrMetallicRoughness" : {
                "baseColorTexture" : {
                    "index" : 0
                },
                "metallicFactor" : 0,
                "roughnessFactor" : 0.5
            }
        }
    ],
    "meshes" : [
        {
            "name" : "Trainingdummy_ArmLeft",
            "primitives" : [
                {
                    "attributes" : {
                        "POSITION" : 0,
                        "TEXCOORD_0" : 1,
                        "NORMAL" : 2
                    },
                    "indices" : 3,
                    "material" : 0
                }
            ]
        },
        {
            "name" : "Trainingdummy_ArmRight",
            "primitives" : [
                {
                    "attributes" : {
                        "POSITION" : 4,
                        "TEXCOORD_0" : 5,
                        "NORMAL" : 6
                    },
                    "indices" : 7,
                    "material" : 0
                }
            ]
        },
        {
            "name" : "Trainingdummy_Head",
            "primitives" : [
                {
                    "attributes" : {
                        "POSITION" : 8,
                        "TEXCOORD_0" : 9,
                        "NORMAL" : 10
                    },
                    "indices" : 11,
                    "material" : 0
                }
            ]
        },
        {
            "name" : "Trainingdummy_TargetBack",
            "primitives" : [
                {
                    "attributes" : {
                        "POSITION" : 12,
                        "TEXCOORD_0" : 13,
                        "NORMAL" : 14
                    },
                    "indices" : 15,
                    "material" : 0
                }
            ]
        },
        {
            "name" : "Trainingdummy_TargetFront",
            "primitives" : [
                {
                    "attributes" : {
                        "POSITION" : 16,
                        "TEXCOORD_0" : 17,
                        "NORMAL" : 18
                    },
                    "indices" : 15,
                    "material" : 0
                }
            ]
        },
        {
            "name" : "Trainingdummy_Chest",
            "primitives" : [
                {
                    "attributes" : {
                        "POSITION" : 19,
                        "TEXCOORD_0" : 20,
                        "NORMAL" : 21
                    },
                    "indices" : 22,
                    "material" : 0
                }
            ]
        },
        {
            "name" : "Trainingdummy_Post",
            "primitives" : [
                {
                    "attributes" : {
                        "POSITION" : 23,
                        "TEXCOORD_0" : 24,
                        "NORMAL" : 25
                    },
                    "indices" : 26,
                    "material" : 0
                }
            ]
        },
        {
            "name" : "Trainingdummy_Base",
            "primitives" : [
                {
                    "attributes" : {
                        "POSITION" : 27,
                        "TEXCOORD_0" : 28,
                        "NORMAL" : 29
                    },
                    "indices" : 30,
                    "material" : 0
                }
            ]
        }
    ],
    "textures" : [
        {
            "sampler" : 0,
            "source" : 0
        }
    ],
    "images" : [
        {
            "mimeType" : "image/png",
            "name" : "avianswordsman_texture",
            "uri" : "avianswordsman_texture.png"
        }
    ],
    "accessors" : [
        {
            "bufferView" : 0,
            "componentType" : 5126,
            "count" : 352,
            "max" : [
                0.7020003795623779,
                0.2864413857460022,
                0.28644147515296936
            ],
            "min" : [
                -0.06947643309831619,
                -0.28644147515296936,
                -0.286441445350647
            ],
            "type" : "VEC3"
        },
        {
            "bufferView" : 1,
            "componentType" : 5126,
            "count" : 352,
            "type" : "VEC2"
        },
        {
            "bufferView" : 2,
            "componentType" : 5126,
            "count" : 352,
            "type" : "VEC3"
        },
        {
            "bufferView" : 3,
            "componentType" : 5123,
            "count" : 972,
            "type" : "SCALAR"
        },
        {
            "bufferView" : 4,
            "componentType" : 5126,
            "count" : 357,
            "max" : [
                0.06947898864746094,
                0.3037410378456116,
                0.2828097641468048
            ],
            "min" : [
                -0.7019978761672974,
                -0.3037409782409668,
                -0.30374106764793396
            ],
            "type" : "VEC3"
        },
        {
            "bufferView" : 5,
            "componentType" : 5126,
            "count" : 357,
            "type" : "VEC2"
        },
        {
            "bufferView" : 6,
            "componentType" : 5126,
            "count" : 357,
            "type" : "VEC3"
        },
        {
            "bufferView" : 7,
            "componentType" : 5123,
            "count" : 972,
            "type" : "SCALAR"
        },
        {
            "bufferView" : 8,
            "componentType" : 5126,
            "count" : 404,
            "max" : [
                0.43852269649505615,
                0.90172278881073,
                0.439045250415802
            ],
            "min" : [
                -0.438522607088089,
                -0.1385226845741272,
                -0.439045250415802
            ],
            "type" : "VEC3"
        },
        {
            "bufferView" : 9,
            "componentType" : 5126,
            "count" : 404,
            "type" : "VEC2"
        },
        {
            "bufferView" : 10,
            "componentType" : 5126,
            "count" : 404,
            "type" : "VEC3"
        },
        {
            "bufferView" : 11,
            "componentType" : 5123,
            "count" : 1236,
            "type" : "SCALAR"
        },
        {
            "bufferView" : 12,
            "componentType" : 5126,
            "count" : 145,
            "max" : [
                0.3236004710197449,
                0.32360050082206726,
                8.525711336915265e-08
            ],
            "min" : [
                -0.32360053062438965,
                -0.32360053062438965,
                -0.09060823172330856
            ],
            "type" : "VEC3"
        },
        {
            "bufferView" : 13,
            "componentType" : 5126,
            "count" : 145,
            "type" : "VEC2"
        },
        {
            "bufferView" : 14,
            "componentType" : 5126,
            "count" : 145,
            "type" : "VEC3"
        },
        {
            "bufferView" : 15,
            "componentType" : 5123,
            "count" : 360,
            "type" : "SCALAR"
        },
        {
            "bufferView" : 16,
            "componentType" : 5126,
            "count" : 145,
            "max" : [
                0.32360050082206726,
                0.32360050082206726,
                0.0906081423163414
            ],
            "min" : [
                -0.32360050082206726,
                -0.32360053062438965,
                4.900937433660602e-10
            ],
            "type" : "VEC3"
        },
        {
            "bufferView" : 17,
            "componentType" : 5126,
            "count" : 145,
            "type" : "VEC2"
        },
        {
            "bufferView" : 18,
            "componentType" : 5126,
            "count" : 145,
            "type" : "VEC3"
        },
        {
            "bufferView" : 19,
            "componentType" : 5126,
            "count" : 1028,
            "max" : [
                0.41297632455825806,
                0.891751766204834,
                0.41297632455825806
            ],
            "min" : [
                -0.41297632455825806,
                -0.2573491632938385,
                -0.41297632455825806
            ],
            "type" : "VEC3"
        },
        {
            "bufferView" : 20,
            "componentType" : 5126,
            "count" : 1028,
            "type" : "VEC2"
        },
        {
            "bufferView" : 21,
            "componentType" : 5126,
            "count" : 1028,
            "type" : "VEC3"
        },
        {
            "bufferView" : 22,
            "componentType" : 5123,
            "count" : 2274,
            "type" : "SCALAR"
        },
        {
            "bufferView" : 23,
            "componentType" : 5126,
            "count" : 96,
            "max" : [
                0.1184447780251503,
                1.2863739728927612,
                0.1184447780251503
            ],
            "min" : [
                -0.1184447780251503,
                -5.960464477539063e-08,
                -0.1184447780251503
            ],
            "type" : "VEC3"
        },
        {
            "bufferView" : 24,
            "componentType" : 5126,
            "count" : 96,
            "type" : "VEC2"
        },
        {
            "bufferView" : 25,
            "componentType" : 5126,
            "count" : 96,
            "type" : "VEC3"
        },
        {
            "bufferView" : 26,
            "componentType" : 5123,
            "count" : 132,
            "type" : "SCALAR"
        },
        {
            "bufferView" : 27,
            "componentType" : 5126,
            "count" : 80,
            "max" : [
                0.39000001549720764,
                0.12999996542930603,
                0.39000001549720764
            ],
            "min" : [
                -0.39000001549720764,
                2.6635824212917214e-08,
                -0.39000001549720764
            ],
            "type" : "VEC3"
        },
        {
            "bufferView" : 28,
            "componentType" : 5126,
            "count" : 80,
            "type" : "VEC2"
        },
        {
            "bufferView" : 29,
            "componentType" : 5126,
            "count" : 80,
            "type" : "VEC3"
        },
        {
            "bufferView" : 30,
            "componentType" : 5123,
            "count" : 132,
            "type" : "SCALAR"
        }
    ],
    "bufferViews" : [
        {
            "buffer" : 0,
            "byteLength" : 4224,
            "byteOffset" : 0,
            "target" : 34962
        },
        {
            "buffer" : 0,
            "byteLength" : 2816,
            "byteOffset" : 4224,
            "target" : 34962
        },
        {
            "buffer" : 0,
            "byteLength" : 4224,
            "byteOffset" : 7040,
            "target" : 34962
        },
        {
            "buffer" : 0,
            "byteLength" : 1944,
            "byteOffset" : 11264,
            "target" : 34963
        },
        {
            "buffer" : 0,
            "byteLength" : 4284,
            "byteOffset" : 13208,
            "target" : 34962
        },
        {
            "buffer" : 0,
            "byteLength" : 2856,
            "byteOffset" : 17492,
            "target" : 34962
        },
        {
            "buffer" : 0,
            "byteLength" : 4284,
            "byteOffset" : 20348,
            "target" : 34962
        },
        {
            "buffer" : 0,
            "byteLength" : 1944,
            "byteOffset" : 24632,
            "target" : 34963
        },
        {
            "buffer" : 0,
            "byteLength" : 4848,
            "byteOffset" : 26576,
            "target" : 34962
        },
        {
            "buffer" : 0,
            "byteLength" : 3232,
            "byteOffset" : 31424,
            "target" : 34962
        },
        {
            "buffer" : 0,
            "byteLength" : 4848,
            "byteOffset" : 34656,
            "target" : 34962
        },
        {
            "buffer" : 0,
            "byteLength" : 2472,
            "byteOffset" : 39504,
            "target" : 34963
        },
        {
            "buffer" : 0,
            "byteLength" : 1740,
            "byteOffset" : 41976,
            "target" : 34962
        },
        {
            "buffer" : 0,
            "byteLength" : 1160,
            "byteOffset" : 43716,
            "target" : 34962
        },
        {
            "buffer" : 0,
            "byteLength" : 1740,
            "byteOffset" : 44876,
            "target" : 34962
        },
        {
            "buffer" : 0,
            "byteLength" : 720,
            "byteOffset" : 46616,
            "target" : 34963
        },
        {
            "buffer" : 0,
            "byteLength" : 1740,
            "byteOffset" : 47336,
            "target" : 34962
        },
        {
            "buffer" : 0,
            "byteLength" : 1160,
            "byteOffset" : 49076,
            "target" : 34962
        },
        {
            "buffer" : 0,
            "byteLength" : 1740,
            "byteOffset" : 50236,
            "target" : 34962
        },
        {
            "buffer" : 0,
            "byteLength" : 12336,
            "byteOffset" : 51976,
            "target" : 34962
        },
        {
            "buffer" : 0,
            "byteLength" : 8224,
            "byteOffset" : 64312,
            "target" : 34962
        },
        {
            "buffer" : 0,
            "byteLength" : 12336,
            "byteOffset" : 72536,
            "target" : 34962
        },
        {
            "buffer" : 0,
            "byteLength" : 4548,
            "byteOffset" : 84872,
            "target" : 34963
        },
        {
            "buffer" : 0,
            "byteLength" : 1152,
            "byteOffset" : 89420,
            "target" : 34962
        },
        {
            "buffer" : 0,
            "byteLength" : 768,
            "byteOffset" : 90572,
            "target" : 34962
        },
        {
            "buffer" : 0,
            "byteLength" : 1152,
            "byteOffset" : 91340,
            "target" : 34962
        },
        {
            "buffer" : 0,
            "byteLength" : 264,
            "byteOffset" : 92492,
            "target" : 34963
        },
        {
            "buffer" : 0,
            "byteLength" : 960,
            "byteOffset" : 92756,
            "target" : 34962
        },
        {
            "buffer" : 0,
            "byteLength" : 640,
            "byteOffset" : 93716,
            "target" : 34962
        },
        {
            "buffer" : 0,
            "byteLength" : 960,
            "byteOffset" : 94356,
            "target" : 34962
        },
        {
            "buffer" : 0,
            "byteLength" : 264,
            "byteOffset" : 95316,
            "target" : 34963
        }
    ],
    "samplers" : [
        {
            "magFilter" : 9729,
            "minFilter" : 9987
        }
    ],
    "buffers" : [
        {
            "byteLength" : 95580,
            "uri" : "Trainingdummy_Base.bin"
        }
    ]
}
